<svg height="2958" width="720" xmlns="http://www.w3.org/2000/svg">
<rect height="2958" fill="#555" width="720"></rect>
<text fill="#7f7" font-family="Courier New" font-size="12" xml:space="preserve">
<tspan x="10" y="26">└─┬ newman@3.5.2 </tspan>
<tspan x="10" y="42">  ├─┬ argparse@1.0.9 </tspan>
<tspan x="10" y="58">  │ └── sprintf-js@1.0.3 </tspan>
<tspan x="10" y="74">  ├── async@2.1.5 </tspan>
<tspan x="10" y="90">  ├── cli-progress@1.3.0 </tspan>
<tspan x="10" y="106">  ├─┬ cli-table2@0.2.0 </tspan>
<tspan x="10" y="122">  │ ├── lodash@3.10.1 </tspan>
<tspan x="10" y="138">  │ └─┬ string-width@1.0.2 </tspan>
<tspan x="10" y="154">  │   ├── code-point-at@1.1.0 </tspan>
<tspan x="10" y="170">  │   ├── is-fullwidth-code-point@1.0.0 </tspan>
<tspan x="10" y="186">  │   └─┬ strip-ansi@3.0.1 </tspan>
<tspan x="10" y="202">  │     └── ansi-regex@2.1.1 </tspan>
<tspan x="10" y="218">  ├── colors@1.1.2 </tspan>
<tspan x="10" y="234">  ├── csv-parse@1.1.12 </tspan>
<tspan x="10" y="250">  ├── eventemitter3@2.0.2 </tspan>
<tspan x="10" y="266">  ├── filesize@3.5.6 </tspan>
<tspan x="10" y="282">  ├─┬ handlebars@4.0.6 </tspan>
<tspan x="10" y="298">  │ ├── async@1.5.2 </tspan>
<tspan x="10" y="314">  │ ├─┬ optimist@0.6.1 </tspan>
<tspan x="10" y="330">  │ │ ├── minimist@0.0.10 </tspan>
<tspan x="10" y="346">  │ │ └── wordwrap@0.0.3 </tspan>
<tspan x="10" y="362">  │ ├─┬ source-map@0.4.4 </tspan>
<tspan x="10" y="378">  │ │ └── amdefine@1.0.1 </tspan>
<tspan x="10" y="394">  │ └─┬ uglify-js@2.8.21 </tspan>
<tspan x="10" y="410">  │   ├── source-map@0.5.6 </tspan>
<tspan x="10" y="426">  │   ├── uglify-to-browserify@1.0.2 </tspan>
<tspan x="10" y="442">  │   └─┬ yargs@3.10.0 </tspan>
<tspan x="10" y="458">  │     ├── camelcase@1.2.1 </tspan>
<tspan x="10" y="474">  │     ├─┬ cliui@2.1.0 </tspan>
<tspan x="10" y="490">  │     │ ├─┬ center-align@0.1.3 </tspan>
<tspan x="10" y="506">  │     │ │ ├─┬ align-text@0.1.4 </tspan>
<tspan x="10" y="522">  │     │ │ │ ├─┬ kind-of@3.1.0 </tspan>
<tspan x="10" y="538">  │     │ │ │ │ └── is-buffer@1.1.5 </tspan>
<tspan x="10" y="554">  │     │ │ │ ├── longest@1.0.1 </tspan>
<tspan x="10" y="570">  │     │ │ │ └── repeat-string@1.6.1 </tspan>
<tspan x="10" y="586">  │     │ │ └── lazy-cache@1.0.4 </tspan>
<tspan x="10" y="602">  │     │ ├── right-align@0.1.3 </tspan>
<tspan x="10" y="618">  │     │ └── wordwrap@0.0.2 </tspan>
<tspan x="10" y="634">  │     ├── decamelize@1.2.0 </tspan>
<tspan x="10" y="650">  │     └── window-size@0.1.0 </tspan>
<tspan x="10" y="666">  ├── lodash@4.17.2 </tspan>
<tspan x="10" y="682">  ├─┬ mkdirp@0.5.1 </tspan>
<tspan x="10" y="698">  │ └── minimist@0.0.8 </tspan>
<tspan x="10" y="714">  ├─┬ parse-json@2.2.0 </tspan>
<tspan x="10" y="730">  │ └─┬ error-ex@1.3.1 </tspan>
<tspan x="10" y="746">  │   └── is-arrayish@0.2.1 </tspan>
<tspan x="10" y="762">  ├─┬ postman-collection@1.0.1 </tspan>
<tspan x="10" y="778">  │ ├── atob@2.0.3 </tspan>
<tspan x="10" y="794">  │ ├── aws4@1.6.0 </tspan>
<tspan x="10" y="810">  │ ├── btoa@1.1.2 </tspan>
<tspan x="10" y="826">  │ ├── crypto-js@3.1.8 </tspan>
<tspan x="10" y="842">  │ ├── escape-html@1.0.3 </tspan>
<tspan x="10" y="858">  │ ├── file-type@4.1.0 </tspan>
<tspan x="10" y="874">  │ ├─┬ hawk@3.1.3 </tspan>
<tspan x="10" y="890">  │ │ ├── boom@2.10.1 </tspan>
<tspan x="10" y="906">  │ │ ├── cryptiles@2.0.5 </tspan>
<tspan x="10" y="922">  │ │ ├── hoek@2.16.3 </tspan>
<tspan x="10" y="938">  │ │ └── sntp@1.0.9 </tspan>
<tspan x="10" y="954">  │ ├── http-reasons@0.1.0 </tspan>
<tspan x="10" y="970">  │ ├── iconv-lite@0.4.15 </tspan>
<tspan x="10" y="986">  │ ├── liquid-json@0.3.1 </tspan>
<tspan x="10" y="1002">  │ ├── marked@0.3.6 </tspan>
<tspan x="10" y="1018">  │ ├─┬ mime-format@2.0.0 </tspan>
<tspan x="10" y="1034">  │ │ └── charset@1.0.0 </tspan>
<tspan x="10" y="1050">  │ ├─┬ mime-types@2.1.14 </tspan>
<tspan x="10" y="1066">  │ │ └── mime-db@1.26.0 </tspan>
<tspan x="10" y="1082">  │ ├─┬ node-oauth1@1.2.1 </tspan>
<tspan x="10" y="1098">  │ │ └── crypto-js@3.1.6 </tspan>
<tspan x="10" y="1114">  │ ├─┬ sanitize-html@1.14.1 </tspan>
<tspan x="10" y="1130">  │ │ ├─┬ htmlparser2@3.9.2 </tspan>
<tspan x="10" y="1146">  │ │ │ ├── domelementtype@1.3.0 </tspan>
<tspan x="10" y="1162">  │ │ │ ├── domhandler@2.3.0 </tspan>
<tspan x="10" y="1178">  │ │ │ ├─┬ domutils@1.5.1 </tspan>
<tspan x="10" y="1194">  │ │ │ │ └─┬ dom-serializer@0.1.0 </tspan>
<tspan x="10" y="1210">  │ │ │ │   └── domelementtype@1.1.3 </tspan>
<tspan x="10" y="1226">  │ │ │ ├── entities@1.1.1 </tspan>
<tspan x="10" y="1242">  │ │ │ └─┬ readable-stream@2.2.6 </tspan>
<tspan x="10" y="1258">  │ │ │   ├── buffer-shims@1.0.0 </tspan>
<tspan x="10" y="1274">  │ │ │   ├── core-util-is@1.0.2 </tspan>
<tspan x="10" y="1290">  │ │ │   ├── isarray@1.0.0 </tspan>
<tspan x="10" y="1306">  │ │ │   ├── process-nextick-args@1.0.7 </tspan>
<tspan x="10" y="1322">  │ │ │   ├── string_decoder@0.10.31 </tspan>
<tspan x="10" y="1338">  │ │ │   └── util-deprecate@1.0.2 </tspan>
<tspan x="10" y="1354">  │ │ ├── regexp-quote@0.0.0 </tspan>
<tspan x="10" y="1370">  │ │ └── xtend@4.0.1 </tspan>
<tspan x="10" y="1386">  │ └── uuid@3.0.1 </tspan>
<tspan x="10" y="1402">  ├─┬ postman-collection-transformer@2.0.10 </tspan>
<tspan x="10" y="1418">  │ ├─┬ commander@2.8.1 </tspan>
<tspan x="10" y="1434">  │ │ └── graceful-readlink@1.0.1 </tspan>
<tspan x="10" y="1450">  │ ├─┬ intel@1.0.2 </tspan>
<tspan x="10" y="1466">  │ │ ├─┬ chalk@1.1.3 </tspan>
<tspan x="10" y="1482">  │ │ │ ├── ansi-styles@2.2.1 </tspan>
<tspan x="10" y="1498">  │ │ │ ├── escape-string-regexp@1.0.5 </tspan>
<tspan x="10" y="1514">  │ │ │ ├── has-ansi@2.0.0 </tspan>
<tspan x="10" y="1530">  │ │ │ └── supports-color@2.0.0 </tspan>
<tspan x="10" y="1546">  │ │ ├── dbug@0.4.2 </tspan>
<tspan x="10" y="1562">  │ │ ├── strftime@0.9.2 </tspan>
<tspan x="10" y="1578">  │ │ ├── symbol@0.2.3 </tspan>
<tspan x="10" y="1594">  │ │ └── utcstring@0.1.0 </tspan>
<tspan x="10" y="1610">  │ ├── lodash@3.10.0 </tspan>
<tspan x="10" y="1626">  │ ├── semver@5.1.0 </tspan>
<tspan x="10" y="1642">  │ └── strip-json-comments@1.0.2 </tspan>
<tspan x="10" y="1658">  ├─┬ postman-request@2.80.1-postman.1 </tspan>
<tspan x="10" y="1674">  │ ├── aws-sign2@0.6.0 </tspan>
<tspan x="10" y="1690">  │ ├── caseless@0.12.0 </tspan>
<tspan x="10" y="1706">  │ ├─┬ combined-stream@1.0.5 </tspan>
<tspan x="10" y="1722">  │ │ └── delayed-stream@1.0.0 </tspan>
<tspan x="10" y="1738">  │ ├── extend@3.0.0 </tspan>
<tspan x="10" y="1754">  │ ├── forever-agent@0.6.1 </tspan>
<tspan x="10" y="1770">  │ ├─┬ form-data@2.1.2 </tspan>
<tspan x="10" y="1786">  │ │ └── asynckit@0.4.0 </tspan>
<tspan x="10" y="1802">  │ ├─┬ har-validator@4.2.1 </tspan>
<tspan x="10" y="1818">  │ │ ├─┬ ajv@4.11.5 </tspan>
<tspan x="10" y="1834">  │ │ │ ├── co@4.6.0 </tspan>
<tspan x="10" y="1850">  │ │ │ └─┬ json-stable-stringify@1.0.1 </tspan>
<tspan x="10" y="1866">  │ │ │   └── jsonify@0.0.0 </tspan>
<tspan x="10" y="1882">  │ │ └── har-schema@1.0.5 </tspan>
<tspan x="10" y="1898">  │ ├─┬ http-signature@1.1.1 </tspan>
<tspan x="10" y="1914">  │ │ ├── assert-plus@0.2.0 </tspan>
<tspan x="10" y="1930">  │ │ ├─┬ jsprim@1.4.0 </tspan>
<tspan x="10" y="1946">  │ │ │ ├── assert-plus@1.0.0 </tspan>
<tspan x="10" y="1962">  │ │ │ ├── extsprintf@1.0.2 </tspan>
<tspan x="10" y="1978">  │ │ │ ├── json-schema@0.2.3 </tspan>
<tspan x="10" y="1994">  │ │ │ └── verror@1.3.6 </tspan>
<tspan x="10" y="2010">  │ │ └─┬ sshpk@1.11.0 </tspan>
<tspan x="10" y="2026">  │ │   ├── asn1@0.2.3 </tspan>
<tspan x="10" y="2042">  │ │   ├── assert-plus@1.0.0 </tspan>
<tspan x="10" y="2058">  │ │   ├── bcrypt-pbkdf@1.0.1 </tspan>
<tspan x="10" y="2074">  │ │   ├─┬ dashdash@1.14.1 </tspan>
<tspan x="10" y="2090">  │ │   │ └── assert-plus@1.0.0 </tspan>
<tspan x="10" y="2106">  │ │   ├── ecc-jsbn@0.1.1 </tspan>
<tspan x="10" y="2122">  │ │   ├─┬ getpass@0.1.6 </tspan>
<tspan x="10" y="2138">  │ │   │ └── assert-plus@1.0.0 </tspan>
<tspan x="10" y="2154">  │ │   ├── jodid25519@1.0.2 </tspan>
<tspan x="10" y="2170">  │ │   ├── jsbn@0.1.1 </tspan>
<tspan x="10" y="2186">  │ │   └── tweetnacl@0.14.5 </tspan>
<tspan x="10" y="2202">  │ ├── is-typedarray@1.0.0 </tspan>
<tspan x="10" y="2218">  │ ├── isstream@0.1.2 </tspan>
<tspan x="10" y="2234">  │ ├── json-stringify-safe@5.0.1 </tspan>
<tspan x="10" y="2250">  │ ├── oauth-sign@0.8.2 </tspan>
<tspan x="10" y="2266">  │ ├── performance-now@0.2.0 </tspan>
<tspan x="10" y="2282">  │ ├── postman-url-encoder@1.0.1 </tspan>
<tspan x="10" y="2298">  │ ├── qs@6.3.2 </tspan>
<tspan x="10" y="2314">  │ ├── safe-buffer@5.0.1 </tspan>
<tspan x="10" y="2330">  │ ├── stringstream@0.0.5 </tspan>
<tspan x="10" y="2346">  │ ├─┬ tough-cookie@2.3.2 </tspan>
<tspan x="10" y="2362">  │ │ └── punycode@1.4.1 </tspan>
<tspan x="10" y="2378">  │ └── tunnel-agent@0.6.0 </tspan>
<tspan x="10" y="2394">  ├─┬ postman-runtime@5.0.0 </tspan>
<tspan x="10" y="2410">  │ ├── lodash@4.17.4 </tspan>
<tspan x="10" y="2426">  │ ├── lodash3@3.10.1 </tspan>
<tspan x="10" y="2442">  │ ├─┬ postman-sandbox@1.0.2 </tspan>
<tspan x="10" y="2458">  │ │ ├── inherits@2.0.3 </tspan>
<tspan x="10" y="2474">  │ │ └─┬ uvm@1.4.0 </tspan>
<tspan x="10" y="2490">  │ │   └── circular-json@0.3.1 </tspan>
<tspan x="10" y="2506">  │ └── resolve-from@2.0.0 </tspan>
<tspan x="10" y="2522">  ├─┬ pretty-ms@2.1.0 </tspan>
<tspan x="10" y="2538">  │ ├─┬ is-finite@1.0.2 </tspan>
<tspan x="10" y="2554">  │ │ └── number-is-nan@1.0.1 </tspan>
<tspan x="10" y="2570">  │ ├── parse-ms@1.0.1 </tspan>
<tspan x="10" y="2586">  │ └── plur@1.0.0 </tspan>
<tspan x="10" y="2602">  ├── semver@5.3.0 </tspan>
<tspan x="10" y="2618">  ├─┬ serialised-error@1.1.2 </tspan>
<tspan x="10" y="2634">  │ ├── node-uuid@1.4.8 </tspan>
<tspan x="10" y="2650">  │ ├── object-hash@1.1.7 </tspan>
<tspan x="10" y="2666">  │ └── stack-trace@0.0.9 </tspan>
<tspan x="10" y="2682">  ├─┬ shelljs@0.7.7 </tspan>
<tspan x="10" y="2698">  │ ├─┬ glob@7.1.1 </tspan>
<tspan x="10" y="2714">  │ │ ├── fs.realpath@1.0.0 </tspan>
<tspan x="10" y="2730">  │ │ ├─┬ inflight@1.0.6 </tspan>
<tspan x="10" y="2746">  │ │ │ └── wrappy@1.0.2 </tspan>
<tspan x="10" y="2762">  │ │ ├─┬ minimatch@3.0.3 </tspan>
<tspan x="10" y="2778">  │ │ │ └─┬ brace-expansion@1.1.6 </tspan>
<tspan x="10" y="2794">  │ │ │   ├── balanced-match@0.4.2 </tspan>
<tspan x="10" y="2810">  │ │ │   └── concat-map@0.0.1 </tspan>
<tspan x="10" y="2826">  │ │ ├── once@1.4.0 </tspan>
<tspan x="10" y="2842">  │ │ └── path-is-absolute@1.0.1 </tspan>
<tspan x="10" y="2858">  │ ├── interpret@1.0.2 </tspan>
<tspan x="10" y="2874">  │ └─┬ rechoir@0.6.2 </tspan>
<tspan x="10" y="2890">  │   └─┬ resolve@1.3.2 </tspan>
<tspan x="10" y="2906">  │     └── path-parse@1.0.5 </tspan>
<tspan x="10" y="2922">  ├── word-wrap@1.1.0 </tspan>
<tspan x="10" y="2938">  └── xmlbuilder@8.2.2</tspan>
</text>
</svg>
