<svg height="2046" width="720" xmlns="http://www.w3.org/2000/svg">
<rect height="2046" fill="#555" width="720"></rect>
<text fill="#7f7" font-family="Courier New" font-size="12" xml:space="preserve">
<tspan x="10" y="26"></tspan>
<tspan x="10" y="42">&gt; npmdoc-newman@0.0.1 test /home/travis/build/npmdoc/node-npmdoc-newman</tspan>
<tspan x="10" y="58">&gt; (set -e; export PORT=$(utility2 shServerPortRandom); utility2 test test.js)</tspan>
<tspan x="10" y="74"></tspan>
<tspan x="10" y="90"></tspan>
<tspan x="10" y="106">[MODE_BUILD=npmTest] - 2017-04-03T12:05:09Z - npm-testing /home/travis/build/npmdoc/node-npmdoc-\</tspan>
<tspan x="10" y="122">newman</tspan>
<tspan x="10" y="138"></tspan>
<tspan x="10" y="154"></tspan>
<tspan x="10" y="170">covering $ /home/travis/.nvm/versions/node/v6.10.1/bin/node /home/travis/build/npmdoc/node-npmdo\</tspan>
<tspan x="10" y="186">c-newman/test.js</tspan>
<tspan x="10" y="202">merging file:///home/travis/build/npmdoc/node-npmdoc-newman/tmp/build/test-report.json to test-r\</tspan>
<tspan x="10" y="218">eport</tspan>
<tspan x="10" y="234">&gt; server listening on http-port 58655</tspan>
<tspan x="10" y="250">Expression assignment to _ now disabled.</tspan>
<tspan x="10" y="266">5499d45</tspan>
<tspan x="10" y="282">created apidoc file:///home/travis/build/npmdoc/node-npmdoc-newman/tmp/build/apidoc.html</tspan>
<tspan x="10" y="298"></tspan>
<tspan x="10" y="314"></tspan>
<tspan x="10" y="330">browserTest - created electron entry-page /home/travis/build/npmdoc/node-npmdoc-newman/tmp/elect\</tspan>
<tspan x="10" y="346">ron.15b33b45f1f0.7fedb7e3f3f08.html</tspan>
<tspan x="10" y="362"></tspan>
<tspan x="10" y="378">[node test-case 1 of 6 passed] - testCase_buildLib_default</tspan>
<tspan x="10" y="394">[node test-case 2 of 6 passed] - testCase_buildReadme_default</tspan>
<tspan x="10" y="410">[node test-case 3 of 6 passed] - testCase_buildTest_default</tspan>
<tspan x="10" y="426"></tspan>
<tspan x="10" y="442">browserTest - created electron entry-page /home/travis/build/npmdoc/node-npmdoc-newman/tmp/elect\</tspan>
<tspan x="10" y="458">ron.15b33b45f600.3f7c5a1cd3ad1.html</tspan>
<tspan x="10" y="474"></tspan>
<tspan x="10" y="490">Xlib:  extension "RANDR" missing on display ":99.0".</tspan>
<tspan x="10" y="506">Xlib:  extension "RANDR" missing on display ":99.0".</tspan>
<tspan x="10" y="522">&gt; server listening on http-port 44848</tspan>
<tspan x="10" y="538">merging file:///home/travis/build/npmdoc/node-npmdoc-newman/tmp/build/test-report.json to test-r\</tspan>
<tspan x="10" y="554">eport</tspan>
<tspan x="10" y="570">Xlib:  extension "RANDR" missing on display ":99.0".</tspan>
<tspan x="10" y="586">merging file:///home/travis/build/npmdoc/node-npmdoc-newman/tmp/build/test-report.json to test-r\</tspan>
<tspan x="10" y="602">eport</tspan>
<tspan x="10" y="618">[4794:0403/120511:WARNING:audio_manager.cc(314)] Multiple instances of AudioManager detected</tspan>
<tspan x="10" y="634">[4794:0403/120511:WARNING:audio_manager.cc(275)] Multiple instances of AudioManager detected</tspan>
<tspan x="10" y="650">Xlib:  extension "RANDR" missing on display ":99.0".</tspan>
<tspan x="10" y="666">[4798:0403/120511:WARNING:audio_manager.cc(314)] Multiple instances of AudioManager detected</tspan>
<tspan x="10" y="682">[4798:0403/120511:WARNING:audio_manager.cc(275)] Multiple instances of AudioManager detected</tspan>
<tspan x="10" y="698">[4831:0403/120511:ERROR:sandbox_linux.cc(343)] InitializeSandbox() called with multiple threads \</tspan>
<tspan x="10" y="714">in process gpu-process. </tspan>
<tspan x="10" y="730">[4794:0403/120511:ERROR:browser_gpu_channel_host_factory.cc(131)] Failed to create channel.</tspan>
<tspan x="10" y="746">[4859:0403/120511:ERROR:sandbox_linux.cc(343)] InitializeSandbox() called with multiple threads \</tspan>
<tspan x="10" y="762">in process gpu-process. </tspan>
<tspan x="10" y="778">[4798:0403/120511:ERROR:browser_gpu_channel_host_factory.cc(131)] Failed to create channel.</tspan>
<tspan x="10" y="794"></tspan>
<tspan x="10" y="810">browserTest - opened url /home/travis/build/npmdoc/node-npmdoc-newman/tmp/build/apidoc.html</tspan>
<tspan x="10" y="826"></tspan>
<tspan x="10" y="842"></tspan>
<tspan x="10" y="858">browserTest - opened url http://127.0.0.1:58655?modeTest=1</tspan>
<tspan x="10" y="874"></tspan>
<tspan x="10" y="890">[4798:0403/120513:INFO:CONSOLE(245)] "----------|-----------|-----------|-----------|-----------\</tspan>
<tspan x="10" y="906">|</tspan>
<tspan x="10" y="922">File      |   % Stmts |% Branches |   % Funcs |   % Lines |</tspan>
<tspan x="10" y="938">----------|-----------|-----------|-----------|-----------|</tspan>
<tspan x="10" y="954">----------|-----------|-----------|-----------|-----------|</tspan>
<tspan x="10" y="970">All files |       100 |       100 |       100 |       100 |</tspan>
<tspan x="10" y="986">----------|-----------|-----------|-----------|-----------|</tspan>
<tspan x="10" y="1002">", source: file:///home/travis/build/npmdoc/node-npmdoc-newman/tmp/electron.15b33b45f600.3f7c5a1\</tspan>
<tspan x="10" y="1018">cd3ad1.html (245)</tspan>
<tspan x="10" y="1034">[4798:0403/120513:INFO:CONSOLE(245)] "created coverage file:///tmp/build/coverage.html/index.htm\</tspan>
<tspan x="10" y="1050">l", source: file:///home/travis/build/npmdoc/node-npmdoc-newman/tmp/electron.15b33b45f600.3f7c5a\</tspan>
<tspan x="10" y="1066">1cd3ad1.html (245)</tspan>
<tspan x="10" y="1082">[node test-case 4 of 6 passed] - testCase_buildApp_default</tspan>
<tspan x="10" y="1098"></tspan>
<tspan x="10" y="1114">browserTest - created screenCapture file:///home/travis/build/npmdoc/node-npmdoc-newman/tmp/buil\</tspan>
<tspan x="10" y="1130">d/screenCapture.npmTest.browser._2Fhome_2Ftravis_2Fbuild_2Fnpmdoc_2Fnode-npmdoc-newman_2Ftmp_2Fb\</tspan>
<tspan x="10" y="1146">uild_2Fapidoc.html.png</tspan>
<tspan x="10" y="1162"></tspan>
<tspan x="10" y="1178">browserTest - created screenCapture file:///home/travis/build/npmdoc/node-npmdoc-newman/tmp/buil\</tspan>
<tspan x="10" y="1194">d/screenCapture.npmTest.browser._2Fhome_2Ftravis_2Fbuild_2Fnpmdoc_2Fnode-npmdoc-newman_2Ftmp_2Fb\</tspan>
<tspan x="10" y="1210">uild_2Fapidoc.html.html</tspan>
<tspan x="10" y="1226"></tspan>
<tspan x="10" y="1242">browserTest - exit-code 0 - /home/travis/build/npmdoc/node-npmdoc-newman/tmp/build/apidoc.html</tspan>
<tspan x="10" y="1258"></tspan>
<tspan x="10" y="1274">[node test-case 5 of 6 passed] - testCase_buildApidoc_default</tspan>
<tspan x="10" y="1290"></tspan>
<tspan x="10" y="1306">browserTest - created screenCapture file:///home/travis/build/npmdoc/node-npmdoc-newman/tmp/buil\</tspan>
<tspan x="10" y="1322">d/screenCapture.npmTest.browser..png</tspan>
<tspan x="10" y="1338"></tspan>
<tspan x="10" y="1354">browserTest - created screenCapture file:///home/travis/build/npmdoc/node-npmdoc-newman/tmp/buil\</tspan>
<tspan x="10" y="1370">d/screenCapture.npmTest.browser..html</tspan>
<tspan x="10" y="1386"></tspan>
<tspan x="10" y="1402">browserTest - exit-code 0 - http://127.0.0.1:58655?modeTest=1</tspan>
<tspan x="10" y="1418"></tspan>
<tspan x="10" y="1434"></tspan>
<tspan x="10" y="1450">browserTest - merged coverage from /home/travis/build/npmdoc/node-npmdoc-newman/tmp/coverage.npm\</tspan>
<tspan x="10" y="1466">Test.browser.%2F.json</tspan>
<tspan x="10" y="1482"></tspan>
<tspan x="10" y="1498"></tspan>
<tspan x="10" y="1514">browserTest - merging test-report from /home/travis/build/npmdoc/node-npmdoc-newman/tmp/test-rep\</tspan>
<tspan x="10" y="1530">ort.npmTest.browser.%2F.json</tspan>
<tspan x="10" y="1546"></tspan>
<tspan x="10" y="1562">[node test-case 6 of 6 passed] - testCase_webpage_default</tspan>
<tspan x="10" y="1578">---------------------------|-----------|-----------|-----------|-----------|</tspan>
<tspan x="10" y="1594">File                       |   % Stmts |% Branches |   % Funcs |   % Lines |</tspan>
<tspan x="10" y="1610">---------------------------|-----------|-----------|-----------|-----------|</tspan>
<tspan x="10" y="1626">   node-npmdoc-newman/     |       100 |       100 |       100 |       100 |</tspan>
<tspan x="10" y="1642">      example.js           |       100 |       100 |       100 |       100 |</tspan>
<tspan x="10" y="1658">      lib.npmdoc_newman.js |       100 |       100 |       100 |       100 |</tspan>
<tspan x="10" y="1674">      test.js              |       100 |       100 |       100 |       100 |</tspan>
<tspan x="10" y="1690">---------------------------|-----------|-----------|-----------|-----------|</tspan>
<tspan x="10" y="1706">All files                  |       100 |       100 |       100 |       100 |</tspan>
<tspan x="10" y="1722">---------------------------|-----------|-----------|-----------|-----------|</tspan>
<tspan x="10" y="1738"></tspan>
<tspan x="10" y="1754">created coverage file:///home/travis/build/npmdoc/node-npmdoc-newman/tmp/build/coverage.html/ind\</tspan>
<tspan x="10" y="1770">ex.html</tspan>
<tspan x="10" y="1786">merging file:///home/travis/build/npmdoc/node-npmdoc-newman/tmp/build/test-report.json to test-r\</tspan>
<tspan x="10" y="1802">eport</tspan>
<tspan x="10" y="1818"></tspan>
<tspan x="10" y="1834">-------------------------------------------------------</tspan>
<tspan x="10" y="1850">| test-report - buildNpmdoc - node - linux v6.10.1 - 2017-04-03T12:04:52.465Z</tspan>
<tspan x="10" y="1866">|   28244 ms            0 failed        6 passed      |</tspan>
<tspan x="10" y="1882">-------------------------------------------------------</tspan>
<tspan x="10" y="1898"></tspan>
<tspan x="10" y="1914">created test-report file:///home/travis/build/npmdoc/node-npmdoc-newman/tmp/build/test-report.ht\</tspan>
<tspan x="10" y="1930">ml</tspan>
<tspan x="10" y="1946"></tspan>
<tspan x="10" y="1962"></tspan>
<tspan x="10" y="1978">npmTest - 0 failed tests</tspan>
<tspan x="10" y="1994"></tspan>
<tspan x="10" y="2010"></tspan>
<tspan x="10" y="2026">[MODE_BUILD=npmTest] - 2017-04-03T12:05:24Z - EXIT_CODE - 0</tspan>
</text>
</svg>
